<mxfile host="app.diagrams.net" agent="Mozilla/5.0 (Windows NT 10.0; Win64; x64) AppleWebKit/537.36 (KHTML, like Gecko) Chrome/129.0.0.0 Safari/537.36" version="24.7.17">
  <diagram name="Page-1" id="FJto94_MxU_pxfpOSUl2">
    <mxGraphModel dx="1419" dy="683" grid="1" gridSize="10" guides="1" tooltips="1" connect="1" arrows="1" fold="1" page="1" pageScale="1" pageWidth="827" pageHeight="1169" math="0" shadow="0">
      <root>
        <mxCell id="0" />
        <mxCell id="1" parent="0" />
        <mxCell id="7eiCXYuCSrhTNemR5Jc6-52" style="edgeStyle=orthogonalEdgeStyle;rounded=0;orthogonalLoop=1;jettySize=auto;html=1;exitX=1;exitY=0.5;exitDx=0;exitDy=0;entryX=0.5;entryY=0;entryDx=0;entryDy=0;" edge="1" parent="1" source="7eiCXYuCSrhTNemR5Jc6-1" target="7eiCXYuCSrhTNemR5Jc6-22">
          <mxGeometry relative="1" as="geometry" />
        </mxCell>
        <mxCell id="7eiCXYuCSrhTNemR5Jc6-53" style="edgeStyle=orthogonalEdgeStyle;rounded=0;orthogonalLoop=1;jettySize=auto;html=1;exitX=0.5;exitY=1;exitDx=0;exitDy=0;entryX=0.5;entryY=0;entryDx=0;entryDy=0;" edge="1" parent="1" source="7eiCXYuCSrhTNemR5Jc6-1" target="7eiCXYuCSrhTNemR5Jc6-2">
          <mxGeometry relative="1" as="geometry" />
        </mxCell>
        <mxCell id="7eiCXYuCSrhTNemR5Jc6-54" style="edgeStyle=orthogonalEdgeStyle;rounded=0;orthogonalLoop=1;jettySize=auto;html=1;exitX=0;exitY=0.5;exitDx=0;exitDy=0;entryX=0.5;entryY=0;entryDx=0;entryDy=0;" edge="1" parent="1" source="7eiCXYuCSrhTNemR5Jc6-1" target="7eiCXYuCSrhTNemR5Jc6-34">
          <mxGeometry relative="1" as="geometry" />
        </mxCell>
        <mxCell id="7eiCXYuCSrhTNemR5Jc6-59" style="edgeStyle=orthogonalEdgeStyle;rounded=0;orthogonalLoop=1;jettySize=auto;html=1;exitX=1;exitY=1;exitDx=0;exitDy=0;entryX=0.5;entryY=0;entryDx=0;entryDy=0;" edge="1" parent="1" source="7eiCXYuCSrhTNemR5Jc6-1" target="7eiCXYuCSrhTNemR5Jc6-46">
          <mxGeometry relative="1" as="geometry">
            <Array as="points">
              <mxPoint x="470" y="200" />
              <mxPoint x="554" y="200" />
            </Array>
          </mxGeometry>
        </mxCell>
        <mxCell id="7eiCXYuCSrhTNemR5Jc6-1" value="Manager" style="html=1;whiteSpace=wrap;" vertex="1" parent="1">
          <mxGeometry x="350" y="100" width="130" height="60" as="geometry" />
        </mxCell>
        <mxCell id="7eiCXYuCSrhTNemR5Jc6-2" value="Order Management" style="swimlane;fontStyle=0;childLayout=stackLayout;horizontal=1;startSize=26;fillColor=none;horizontalStack=0;resizeParent=1;resizeParentMax=0;resizeLast=0;collapsible=1;marginBottom=0;whiteSpace=wrap;html=1;" vertex="1" parent="1">
          <mxGeometry x="344" y="250" width="140" height="156" as="geometry" />
        </mxCell>
        <mxCell id="7eiCXYuCSrhTNemR5Jc6-3" value="- Create Order&amp;nbsp;&amp;nbsp;&lt;div&gt;&lt;br&gt;&lt;/div&gt;" style="text;strokeColor=none;fillColor=none;align=left;verticalAlign=top;spacingLeft=4;spacingRight=4;overflow=hidden;rotatable=0;points=[[0,0.5],[1,0.5]];portConstraint=eastwest;whiteSpace=wrap;html=1;" vertex="1" parent="7eiCXYuCSrhTNemR5Jc6-2">
          <mxGeometry y="26" width="140" height="26" as="geometry" />
        </mxCell>
        <mxCell id="7eiCXYuCSrhTNemR5Jc6-8" value="-&amp;nbsp; View Orders&amp;nbsp;&amp;nbsp;&lt;div&gt;&lt;br&gt;&lt;/div&gt;" style="text;strokeColor=none;fillColor=none;align=left;verticalAlign=top;spacingLeft=4;spacingRight=4;overflow=hidden;rotatable=0;points=[[0,0.5],[1,0.5]];portConstraint=eastwest;whiteSpace=wrap;html=1;" vertex="1" parent="7eiCXYuCSrhTNemR5Jc6-2">
          <mxGeometry y="52" width="140" height="26" as="geometry" />
        </mxCell>
        <mxCell id="7eiCXYuCSrhTNemR5Jc6-9" value="-&amp;nbsp; Update Order&amp;nbsp; &amp;nbsp;&lt;div&gt;&lt;br&gt;&lt;/div&gt;" style="text;strokeColor=none;fillColor=none;align=left;verticalAlign=top;spacingLeft=4;spacingRight=4;overflow=hidden;rotatable=0;points=[[0,0.5],[1,0.5]];portConstraint=eastwest;whiteSpace=wrap;html=1;" vertex="1" parent="7eiCXYuCSrhTNemR5Jc6-2">
          <mxGeometry y="78" width="140" height="26" as="geometry" />
        </mxCell>
        <mxCell id="7eiCXYuCSrhTNemR5Jc6-10" value="-&amp;nbsp; Delete Order&lt;div&gt;&lt;br&gt;&lt;/div&gt;" style="text;strokeColor=none;fillColor=none;align=left;verticalAlign=top;spacingLeft=4;spacingRight=4;overflow=hidden;rotatable=0;points=[[0,0.5],[1,0.5]];portConstraint=eastwest;whiteSpace=wrap;html=1;" vertex="1" parent="7eiCXYuCSrhTNemR5Jc6-2">
          <mxGeometry y="104" width="140" height="26" as="geometry" />
        </mxCell>
        <mxCell id="7eiCXYuCSrhTNemR5Jc6-11" value="-&amp;nbsp; Assign Delivery&lt;div&gt;&lt;br&gt;&lt;/div&gt;" style="text;strokeColor=none;fillColor=none;align=left;verticalAlign=top;spacingLeft=4;spacingRight=4;overflow=hidden;rotatable=0;points=[[0,0.5],[1,0.5]];portConstraint=eastwest;whiteSpace=wrap;html=1;" vertex="1" parent="7eiCXYuCSrhTNemR5Jc6-2">
          <mxGeometry y="130" width="140" height="26" as="geometry" />
        </mxCell>
        <mxCell id="7eiCXYuCSrhTNemR5Jc6-22" value="Delivery Tracking" style="swimlane;fontStyle=0;childLayout=stackLayout;horizontal=1;startSize=26;fillColor=none;horizontalStack=0;resizeParent=1;resizeParentMax=0;resizeLast=0;collapsible=1;marginBottom=0;whiteSpace=wrap;html=1;" vertex="1" parent="1">
          <mxGeometry x="620" y="220" width="140" height="200" as="geometry" />
        </mxCell>
        <mxCell id="7eiCXYuCSrhTNemR5Jc6-23" value="&lt;div&gt;-&amp;nbsp; Track Package Status&lt;/div&gt;" style="text;strokeColor=none;fillColor=none;align=left;verticalAlign=top;spacingLeft=4;spacingRight=4;overflow=hidden;rotatable=0;points=[[0,0.5],[1,0.5]];portConstraint=eastwest;whiteSpace=wrap;html=1;" vertex="1" parent="7eiCXYuCSrhTNemR5Jc6-22">
          <mxGeometry y="26" width="140" height="26" as="geometry" />
        </mxCell>
        <mxCell id="7eiCXYuCSrhTNemR5Jc6-24" value="-&amp;nbsp; View Delivery Routes&amp;nbsp;&lt;div&gt;&lt;br&gt;&lt;/div&gt;" style="text;strokeColor=none;fillColor=none;align=left;verticalAlign=top;spacingLeft=4;spacingRight=4;overflow=hidden;rotatable=0;points=[[0,0.5],[1,0.5]];portConstraint=eastwest;whiteSpace=wrap;html=1;" vertex="1" parent="7eiCXYuCSrhTNemR5Jc6-22">
          <mxGeometry y="52" width="140" height="26" as="geometry" />
        </mxCell>
        <mxCell id="7eiCXYuCSrhTNemR5Jc6-25" value="-&amp;nbsp; Assign Delivery&amp;nbsp; &amp;nbsp; &amp;nbsp; &amp;nbsp; &amp;nbsp; &amp;nbsp; &amp;nbsp; Personnel&amp;nbsp; &amp;nbsp;&lt;div&gt;&lt;br&gt;&lt;/div&gt;" style="text;strokeColor=none;fillColor=none;align=left;verticalAlign=top;spacingLeft=4;spacingRight=4;overflow=hidden;rotatable=0;points=[[0,0.5],[1,0.5]];portConstraint=eastwest;whiteSpace=wrap;html=1;" vertex="1" parent="7eiCXYuCSrhTNemR5Jc6-22">
          <mxGeometry y="78" width="140" height="42" as="geometry" />
        </mxCell>
        <mxCell id="7eiCXYuCSrhTNemR5Jc6-26" value="-&amp;nbsp; Update Delivery&amp;nbsp; &amp;nbsp; &amp;nbsp; &amp;nbsp; &amp;nbsp; &amp;nbsp; &amp;nbsp;Status&lt;div&gt;&lt;br&gt;&lt;/div&gt;" style="text;strokeColor=none;fillColor=none;align=left;verticalAlign=top;spacingLeft=4;spacingRight=4;overflow=hidden;rotatable=0;points=[[0,0.5],[1,0.5]];portConstraint=eastwest;whiteSpace=wrap;html=1;" vertex="1" parent="7eiCXYuCSrhTNemR5Jc6-22">
          <mxGeometry y="120" width="140" height="40" as="geometry" />
        </mxCell>
        <mxCell id="7eiCXYuCSrhTNemR5Jc6-27" value="-&amp;nbsp; View Real-Time&amp;nbsp; &amp;nbsp; &amp;nbsp; &amp;nbsp; &amp;nbsp; &amp;nbsp; &amp;nbsp; Delivery Updates&lt;div&gt;&lt;br&gt;&lt;/div&gt;" style="text;strokeColor=none;fillColor=none;align=left;verticalAlign=top;spacingLeft=4;spacingRight=4;overflow=hidden;rotatable=0;points=[[0,0.5],[1,0.5]];portConstraint=eastwest;whiteSpace=wrap;html=1;" vertex="1" parent="7eiCXYuCSrhTNemR5Jc6-22">
          <mxGeometry y="160" width="140" height="40" as="geometry" />
        </mxCell>
        <mxCell id="7eiCXYuCSrhTNemR5Jc6-34" value="Customer Management" style="swimlane;fontStyle=0;childLayout=stackLayout;horizontal=1;startSize=26;fillColor=none;horizontalStack=0;resizeParent=1;resizeParentMax=0;resizeLast=0;collapsible=1;marginBottom=0;whiteSpace=wrap;html=1;" vertex="1" parent="1">
          <mxGeometry x="70" y="220" width="140" height="200" as="geometry" />
        </mxCell>
        <mxCell id="7eiCXYuCSrhTNemR5Jc6-35" value="-&amp;nbsp; Add Customers&amp;nbsp;&amp;nbsp;&lt;div&gt;&lt;br&gt;&lt;/div&gt;" style="text;strokeColor=none;fillColor=none;align=left;verticalAlign=top;spacingLeft=4;spacingRight=4;overflow=hidden;rotatable=0;points=[[0,0.5],[1,0.5]];portConstraint=eastwest;whiteSpace=wrap;html=1;" vertex="1" parent="7eiCXYuCSrhTNemR5Jc6-34">
          <mxGeometry y="26" width="140" height="26" as="geometry" />
        </mxCell>
        <mxCell id="7eiCXYuCSrhTNemR5Jc6-36" value="-&amp;nbsp; Update Customer&amp;nbsp; &amp;nbsp; &amp;nbsp; &amp;nbsp; &amp;nbsp; &amp;nbsp;Details&amp;nbsp;&amp;nbsp;&lt;div&gt;&lt;br&gt;&lt;/div&gt;" style="text;strokeColor=none;fillColor=none;align=left;verticalAlign=top;spacingLeft=4;spacingRight=4;overflow=hidden;rotatable=0;points=[[0,0.5],[1,0.5]];portConstraint=eastwest;whiteSpace=wrap;html=1;" vertex="1" parent="7eiCXYuCSrhTNemR5Jc6-34">
          <mxGeometry y="52" width="140" height="38" as="geometry" />
        </mxCell>
        <mxCell id="7eiCXYuCSrhTNemR5Jc6-37" value="-&amp;nbsp; View Customer&amp;nbsp; &amp;nbsp; &amp;nbsp; &amp;nbsp; &amp;nbsp; &amp;nbsp; &amp;nbsp; &amp;nbsp; Profiles&amp;nbsp; &amp;nbsp;&lt;div&gt;&lt;br&gt;&lt;/div&gt;" style="text;strokeColor=none;fillColor=none;align=left;verticalAlign=top;spacingLeft=4;spacingRight=4;overflow=hidden;rotatable=0;points=[[0,0.5],[1,0.5]];portConstraint=eastwest;whiteSpace=wrap;html=1;" vertex="1" parent="7eiCXYuCSrhTNemR5Jc6-34">
          <mxGeometry y="90" width="140" height="40" as="geometry" />
        </mxCell>
        <mxCell id="7eiCXYuCSrhTNemR5Jc6-38" value="-&amp;nbsp; Delete Customer&lt;div&gt;&lt;br&gt;&lt;/div&gt;" style="text;strokeColor=none;fillColor=none;align=left;verticalAlign=top;spacingLeft=4;spacingRight=4;overflow=hidden;rotatable=0;points=[[0,0.5],[1,0.5]];portConstraint=eastwest;whiteSpace=wrap;html=1;" vertex="1" parent="7eiCXYuCSrhTNemR5Jc6-34">
          <mxGeometry y="130" width="140" height="26" as="geometry" />
        </mxCell>
        <mxCell id="7eiCXYuCSrhTNemR5Jc6-39" value="-&amp;nbsp; Handle Customer&amp;nbsp; &amp;nbsp; &amp;nbsp; &amp;nbsp; &amp;nbsp; &amp;nbsp;Support Queries" style="text;strokeColor=none;fillColor=none;align=left;verticalAlign=top;spacingLeft=4;spacingRight=4;overflow=hidden;rotatable=0;points=[[0,0.5],[1,0.5]];portConstraint=eastwest;whiteSpace=wrap;html=1;" vertex="1" parent="7eiCXYuCSrhTNemR5Jc6-34">
          <mxGeometry y="156" width="140" height="44" as="geometry" />
        </mxCell>
        <mxCell id="7eiCXYuCSrhTNemR5Jc6-40" value="Payment Processing" style="swimlane;fontStyle=0;childLayout=stackLayout;horizontal=1;startSize=26;fillColor=none;horizontalStack=0;resizeParent=1;resizeParentMax=0;resizeLast=0;collapsible=1;marginBottom=0;whiteSpace=wrap;html=1;" vertex="1" parent="1">
          <mxGeometry x="204" y="520" width="140" height="190" as="geometry" />
        </mxCell>
        <mxCell id="7eiCXYuCSrhTNemR5Jc6-41" value="-&amp;nbsp; View Payment&amp;nbsp; &amp;nbsp; &amp;nbsp; &amp;nbsp; &amp;nbsp; &amp;nbsp; &amp;nbsp; &amp;nbsp;History&amp;nbsp;&amp;nbsp;&lt;div&gt;&lt;br&gt;&lt;/div&gt;" style="text;strokeColor=none;fillColor=none;align=left;verticalAlign=top;spacingLeft=4;spacingRight=4;overflow=hidden;rotatable=0;points=[[0,0.5],[1,0.5]];portConstraint=eastwest;whiteSpace=wrap;html=1;" vertex="1" parent="7eiCXYuCSrhTNemR5Jc6-40">
          <mxGeometry y="26" width="140" height="44" as="geometry" />
        </mxCell>
        <mxCell id="7eiCXYuCSrhTNemR5Jc6-42" value="-&amp;nbsp; Process Refunds&amp;nbsp;&lt;div&gt;&lt;br&gt;&lt;/div&gt;" style="text;strokeColor=none;fillColor=none;align=left;verticalAlign=top;spacingLeft=4;spacingRight=4;overflow=hidden;rotatable=0;points=[[0,0.5],[1,0.5]];portConstraint=eastwest;whiteSpace=wrap;html=1;" vertex="1" parent="7eiCXYuCSrhTNemR5Jc6-40">
          <mxGeometry y="70" width="140" height="30" as="geometry" />
        </mxCell>
        <mxCell id="7eiCXYuCSrhTNemR5Jc6-43" value="-&amp;nbsp; Update Payment&amp;nbsp; &amp;nbsp; &amp;nbsp; &amp;nbsp; &amp;nbsp; &amp;nbsp;Information&amp;nbsp; &amp;nbsp;&lt;div&gt;&lt;br&gt;&lt;/div&gt;" style="text;strokeColor=none;fillColor=none;align=left;verticalAlign=top;spacingLeft=4;spacingRight=4;overflow=hidden;rotatable=0;points=[[0,0.5],[1,0.5]];portConstraint=eastwest;whiteSpace=wrap;html=1;" vertex="1" parent="7eiCXYuCSrhTNemR5Jc6-40">
          <mxGeometry y="100" width="140" height="40" as="geometry" />
        </mxCell>
        <mxCell id="7eiCXYuCSrhTNemR5Jc6-44" value="-&amp;nbsp; Generate Invoices&lt;div&gt;&lt;br&gt;&lt;/div&gt;" style="text;strokeColor=none;fillColor=none;align=left;verticalAlign=top;spacingLeft=4;spacingRight=4;overflow=hidden;rotatable=0;points=[[0,0.5],[1,0.5]];portConstraint=eastwest;whiteSpace=wrap;html=1;" vertex="1" parent="7eiCXYuCSrhTNemR5Jc6-40">
          <mxGeometry y="140" width="140" height="26" as="geometry" />
        </mxCell>
        <mxCell id="7eiCXYuCSrhTNemR5Jc6-45" value="-&amp;nbsp; Verify Payment Status" style="text;strokeColor=none;fillColor=none;align=left;verticalAlign=top;spacingLeft=4;spacingRight=4;overflow=hidden;rotatable=0;points=[[0,0.5],[1,0.5]];portConstraint=eastwest;whiteSpace=wrap;html=1;" vertex="1" parent="7eiCXYuCSrhTNemR5Jc6-40">
          <mxGeometry y="166" width="140" height="24" as="geometry" />
        </mxCell>
        <mxCell id="7eiCXYuCSrhTNemR5Jc6-46" value="Report Generation" style="swimlane;fontStyle=0;childLayout=stackLayout;horizontal=1;startSize=26;fillColor=none;horizontalStack=0;resizeParent=1;resizeParentMax=0;resizeLast=0;collapsible=1;marginBottom=0;whiteSpace=wrap;html=1;" vertex="1" parent="1">
          <mxGeometry x="484" y="520" width="140" height="234" as="geometry" />
        </mxCell>
        <mxCell id="7eiCXYuCSrhTNemR5Jc6-47" value="-&amp;nbsp; Generate Sales&amp;nbsp; &amp;nbsp; &amp;nbsp; &amp;nbsp; &amp;nbsp; &amp;nbsp; &amp;nbsp; Reports&amp;nbsp;&amp;nbsp;&lt;div&gt;&lt;br&gt;&lt;/div&gt;" style="text;strokeColor=none;fillColor=none;align=left;verticalAlign=top;spacingLeft=4;spacingRight=4;overflow=hidden;rotatable=0;points=[[0,0.5],[1,0.5]];portConstraint=eastwest;whiteSpace=wrap;html=1;" vertex="1" parent="7eiCXYuCSrhTNemR5Jc6-46">
          <mxGeometry y="26" width="140" height="44" as="geometry" />
        </mxCell>
        <mxCell id="7eiCXYuCSrhTNemR5Jc6-48" value="-&amp;nbsp; Generate Delivery&amp;nbsp; &amp;nbsp; &amp;nbsp; &amp;nbsp; &amp;nbsp; Reports&amp;nbsp;&lt;div&gt;&lt;br&gt;&lt;/div&gt;" style="text;strokeColor=none;fillColor=none;align=left;verticalAlign=top;spacingLeft=4;spacingRight=4;overflow=hidden;rotatable=0;points=[[0,0.5],[1,0.5]];portConstraint=eastwest;whiteSpace=wrap;html=1;" vertex="1" parent="7eiCXYuCSrhTNemR5Jc6-46">
          <mxGeometry y="70" width="140" height="38" as="geometry" />
        </mxCell>
        <mxCell id="7eiCXYuCSrhTNemR5Jc6-49" value="-&amp;nbsp; View Customer&amp;nbsp; &amp;nbsp; &amp;nbsp; &amp;nbsp; &amp;nbsp; &amp;nbsp; &amp;nbsp; &amp;nbsp; Activity Reports&amp;nbsp; &amp;nbsp;&lt;div&gt;&lt;br&gt;&lt;/div&gt;" style="text;strokeColor=none;fillColor=none;align=left;verticalAlign=top;spacingLeft=4;spacingRight=4;overflow=hidden;rotatable=0;points=[[0,0.5],[1,0.5]];portConstraint=eastwest;whiteSpace=wrap;html=1;" vertex="1" parent="7eiCXYuCSrhTNemR5Jc6-46">
          <mxGeometry y="108" width="140" height="40" as="geometry" />
        </mxCell>
        <mxCell id="7eiCXYuCSrhTNemR5Jc6-50" value="-&amp;nbsp; Export Reports to&amp;nbsp; &amp;nbsp; &amp;nbsp; &amp;nbsp; &amp;nbsp; &amp;nbsp;PDF/CSV" style="text;strokeColor=none;fillColor=none;align=left;verticalAlign=top;spacingLeft=4;spacingRight=4;overflow=hidden;rotatable=0;points=[[0,0.5],[1,0.5]];portConstraint=eastwest;whiteSpace=wrap;html=1;" vertex="1" parent="7eiCXYuCSrhTNemR5Jc6-46">
          <mxGeometry y="148" width="140" height="42" as="geometry" />
        </mxCell>
        <mxCell id="7eiCXYuCSrhTNemR5Jc6-51" value="-&amp;nbsp; Customize Report&amp;nbsp; &amp;nbsp; &amp;nbsp; &amp;nbsp; &amp;nbsp;Criteria" style="text;strokeColor=none;fillColor=none;align=left;verticalAlign=top;spacingLeft=4;spacingRight=4;overflow=hidden;rotatable=0;points=[[0,0.5],[1,0.5]];portConstraint=eastwest;whiteSpace=wrap;html=1;" vertex="1" parent="7eiCXYuCSrhTNemR5Jc6-46">
          <mxGeometry y="190" width="140" height="44" as="geometry" />
        </mxCell>
        <mxCell id="7eiCXYuCSrhTNemR5Jc6-55" style="edgeStyle=orthogonalEdgeStyle;rounded=0;orthogonalLoop=1;jettySize=auto;html=1;exitX=0;exitY=1;exitDx=0;exitDy=0;entryX=0.459;entryY=0.006;entryDx=0;entryDy=0;entryPerimeter=0;" edge="1" parent="1" source="7eiCXYuCSrhTNemR5Jc6-1" target="7eiCXYuCSrhTNemR5Jc6-40">
          <mxGeometry relative="1" as="geometry">
            <Array as="points">
              <mxPoint x="359" y="200" />
              <mxPoint x="268" y="200" />
            </Array>
          </mxGeometry>
        </mxCell>
      </root>
    </mxGraphModel>
  </diagram>
</mxfile>
